PathFileType	4	(X/Y/Z)	C:\Git\research_data\torsion_deformities_healthy_kinematics\simulations\P03\pre\Static01\marker_experimental_HJC.trc
DataRate	CameraRate	NumFrames	NumMarkers	Units	OrigDataRate	OrigDataStartFrame	OrigNumFrames
150	150	5	38	mm	150	132	150
Frame#	Time	C7			T10			CLAV			STRN			RBAK			SACR			LASI			RASI			LT1			LT2			LT3			LS1			LS2			LS3			LHEE			LTOE			RT1			RT2			RT3			RS1			RS2			RS3			RHEE			RTOE			LKNE			LKNM			LANK			LANM			RKNM			RKNE			RANM			RANK			LKJC			RKJC			LAJC			RAJC			LHJC			RHJC		
		X1	Y1	Z1	X2	Y2	Z2	X3	Y3	Z3	X4	Y4	Z4	X5	Y5	Z5	X6	Y6	Z6	X7	Y7	Z7	X8	Y8	Z8	X9	Y9	Z9	X10	Y10	Z10	X11	Y11	Z11	X12	Y12	Z12	X13	Y13	Z13	X14	Y14	Z14	X15	Y15	Z15	X16	Y16	Z16	X17	Y17	Z17	X18	Y18	Z18	X19	Y19	Z19	X20	Y20	Z20	X21	Y21	Z21	X22	Y22	Z22	X23	Y23	Z23	X24	Y24	Z24	X25	Y25	Z25	X26	Y26	Z26	X27	Y27	Z27	X28	Y28	Z28	X29	Y29	Z29	X30	Y30	Z30	X31	Y31	Z31	X32	Y32	Z32	X33	Y33	Z33	X34	Y34	Z34	X35	Y35	Z35	X36	Y36	Z36	X37	Y37	Z37	X38	Y38	Z38	

132	0.873333	-965.837036	1273.034058	-445.881500	-914.818970	1093.662231	-441.934998	-1096.023438	1210.126709	-432.973206	-1128.288452	1156.920776	-428.213623	-930.976013	1173.951172	-541.091003	-916.931641	874.446777	-428.205841	-1074.062256	870.923401	-277.985931	-1124.228882	876.145813	-521.437073	-1129.687500	585.763123	-242.923813	-1080.788086	474.124481	-230.470490	-1204.289917	531.231567	-276.712891	-1033.876099	217.001495	-282.442200	-950.802795	148.709732	-342.309357	-1062.625366	131.462219	-254.302963	-973.885803	41.880650	-368.015289	-1083.230469	41.351543	-262.352051	-1134.415283	605.385376	-591.838196	-1058.829468	506.635193	-584.278442	-1200.246216	532.876831	-582.593323	-1092.090698	265.811035	-586.799377	-983.938782	217.414474	-562.111572	-1118.736206	175.285507	-581.792175	-981.867554	45.012047	-499.799286	-1123.544067	41.998852	-570.035278	-1148.925537	432.359924	-267.894257	-1164.256836	421.315247	-367.449707	-994.324036	49.726101	-304.911591	-1045.003662	47.025425	-356.997589	-1168.968262	422.706848	-465.591309	-1168.820190	438.341339	-568.222168	-1062.745361	52.554356	-490.107269	-1019.134399	47.903950	-551.965759	-1156.591187	426.837585	-317.671997	-1168.894165	430.524078	-516.906738	-1019.663818	48.375763	-330.954590	-1040.939941	50.229153	-521.036499	-1027.931649	786.514766	-325.010610	-1063.987603	790.268238	-499.984767	
133	0.880000	-965.765686	1272.995728	-445.826904	-914.835754	1093.600586	-441.891968	-1095.947266	1210.215088	-432.942139	-1128.282959	1157.049561	-428.189270	-930.938965	1173.901489	-541.052673	-917.029236	874.413391	-428.200806	-1074.220337	870.947144	-278.035339	-1124.291260	876.140320	-521.513550	-1129.817871	585.772400	-242.956329	-1080.908447	474.138580	-230.443665	-1204.385376	531.215820	-276.774109	-1033.899536	217.003555	-282.449097	-950.814270	148.725876	-342.321747	-1062.631104	131.459427	-254.299011	-973.894775	41.886257	-368.015442	-1083.234741	41.349857	-262.344269	-1134.494263	605.372925	-591.809326	-1058.897583	506.633484	-584.212646	-1200.317261	532.848083	-582.563538	-1092.150146	265.800629	-586.764526	-983.982910	217.417679	-562.098328	-1118.772949	175.282028	-581.754822	-981.872314	45.014961	-499.794525	-1123.547974	41.991180	-570.026917	-1149.002075	432.339600	-267.908997	-1164.311523	421.296631	-367.484314	-994.332275	49.729752	-304.909637	-1045.006226	47.023830	-356.994812	-1169.016968	422.703857	-465.538483	-1168.886841	438.318726	-568.162354	-1062.745239	52.542686	-490.094574	-1019.145264	47.906754	-551.958862	-1156.656738	426.818115	-317.696655	-1168.951904	430.511292	-516.850403	-1019.669312	48.376793	-330.952240	-1040.945312	50.224720	-521.026733	-1028.088583	786.519263	-325.029263	-1064.075674	790.251714	-500.022495	
134	0.886667	-965.696106	1272.960083	-445.772705	-914.849182	1093.540649	-441.857635	-1095.879883	1210.294189	-432.903809	-1128.274048	1157.166504	-428.160492	-930.910156	1173.851807	-541.020020	-917.134949	874.379883	-428.209869	-1074.375366	870.957214	-278.079651	-1124.362427	876.139832	-521.574646	-1129.956909	585.780884	-242.986649	-1081.032349	474.151154	-230.420822	-1204.493774	531.200317	-276.838013	-1033.925415	217.002136	-282.453857	-950.827026	148.742050	-342.332306	-1062.643555	131.450272	-254.297211	-973.901367	41.891712	-368.014343	-1083.237915	41.345860	-262.337158	-1134.562622	605.365967	-591.788086	-1058.955200	506.639832	-584.149841	-1200.370239	532.822693	-582.544556	-1092.208008	265.793457	-586.733215	-984.015442	217.420670	-562.083191	-1118.801514	175.281296	-581.727539	-981.876282	45.018074	-499.791077	-1123.547852	41.981140	-570.023071	-1149.088013	432.315247	-267.920837	-1164.362305	421.271240	-367.516296	-994.338013	49.730423	-304.911072	-1045.009888	47.021046	-356.991821	-1169.053711	422.701141	-465.493652	-1168.941772	438.301422	-568.113953	-1062.744751	52.532883	-490.084808	-1019.154907	47.908081	-551.953186	-1156.725220	426.793243	-317.718567	-1168.997803	430.501282	-516.803772	-1019.673950	48.375732	-330.951447	-1040.949829	50.220482	-521.018982	-1028.244357	786.516383	-325.050700	-1064.171182	790.241247	-500.056033	
135	0.893333	-965.626709	1272.927490	-445.718048	-914.856079	1093.483887	-441.831116	-1095.819702	1210.362915	-432.861298	-1128.263184	1157.268921	-428.130432	-930.884827	1173.805664	-540.989685	-917.246582	874.343811	-428.230927	-1074.522705	870.954956	-278.117493	-1124.442261	876.145203	-521.619995	-1130.100586	585.787048	-243.015945	-1081.159180	474.164642	-230.405121	-1204.613525	531.185974	-276.904419	-1033.954834	216.998413	-282.456451	-950.842590	148.758072	-342.341400	-1062.663086	131.436401	-254.296844	-973.906067	41.897648	-368.012146	-1083.239868	41.339939	-262.331665	-1134.620361	605.364136	-591.773682	-1059.003174	506.654785	-584.092224	-1200.409546	532.803467	-582.534180	-1092.261841	265.789703	-586.706604	-984.038269	217.423462	-562.068420	-1118.822388	175.282440	-581.710022	-981.879517	45.021477	-499.788940	-1123.544434	41.969643	-570.023621	-1149.194214	432.297913	-267.923279	-1164.408813	421.242340	-367.540466	-994.340759	49.727409	-304.915466	-1045.015015	47.017010	-356.989471	-1169.078857	422.696014	-465.457916	-1168.986450	438.290894	-568.078003	-1062.744507	52.525383	-490.077576	-1019.163086	47.908291	-551.949097	-1156.801514	426.770111	-317.731873	-1169.032715	430.493439	-516.768005	-1019.677856	48.372208	-330.952454	-1040.953735	50.216839	-521.013306	-1028.396814	786.505808	-325.074159	-1064.275194	790.236163	-500.085236	
136	0.900000	-965.557617	1272.897461	-445.662659	-914.854553	1093.432129	-441.811432	-1095.763794	1210.422485	-432.816254	-1128.252197	1157.356323	-428.100281	-930.854431	1173.767944	-540.957092	-917.361328	874.303589	-428.261566	-1074.658081	870.942627	-278.148132	-1124.530273	876.156677	-521.650574	-1130.246338	585.789551	-243.045410	-1081.288452	474.179169	-230.394531	-1204.741089	531.173035	-276.972626	-1033.988403	216.993774	-282.457367	-950.862915	148.774048	-342.350220	-1062.688354	131.420547	-254.296753	-973.909546	41.904556	-368.009705	-1083.241089	41.333107	-262.328400	-1134.668945	605.367432	-591.765564	-1059.043701	506.678223	-584.042847	-1200.442383	532.791260	-582.532593	-1092.307617	265.789154	-586.686218	-984.052612	217.425934	-562.055359	-1118.835693	175.284332	-581.701233	-981.882080	45.025276	-499.788086	-1123.537964	41.957729	-570.028076	-1149.333984	432.296906	-267.912109	-1164.455078	421.213837	-367.557587	-994.341553	49.721886	-304.921661	-1045.021851	47.011726	-356.988312	-1169.098145	422.689148	-465.432587	-1169.022217	438.287598	-568.055237	-1062.744629	52.520527	-490.072449	-1019.169189	47.907681	-551.946960	-1156.894531	426.755371	-317.734833	-1169.060181	430.488373	-516.743896	-1019.681702	48.366806	-330.954987	-1040.956909	50.214104	-521.009705	-1028.543525	786.487954	-325.099015	-1064.387970	790.235428	-500.110570	
